<svg xmlns="http://www.w3.org/2000/svg" viewBox="0 0 500 375"><g data-name="Location Not Found"><path fill="#f9d95a" d="M364.87 122.277c-11.084-28.995-55.877-35.803-55.877-35.803v41.69s31.114 1.426 15.747 20.308a23.88 23.88 0 0 0-11.027-10c-20.889-9.109-57.977 2.715-80.53 15.87s-29.03 31.181-29.457 50.33c0 0 2.132 24.76 18.85 31.155 16.72 6.395 74.511-15.347 91.137-31.155a49.413 49.413 0 0 0 8.391-10.55c32.952-21.383 53.124-44.75 42.766-71.845Z"/><ellipse cx="248.707" cy="303.8" fill="#f4b1e6" rx="62.316" ry="21.43"/><ellipse cx="248.707" cy="303.8" fill="#2b8941" rx="24.743" ry="7.767"/><path fill="#2b8941" d="M248.707 315.727c-20.693 0-36.902-5.24-36.902-11.927s16.21-11.927 36.902-11.927c20.693 0 36.902 5.24 36.902 11.927s-16.209 11.927-36.902 11.927Zm0-22.854c-19.46 0-35.902 5.004-35.902 10.927s16.441 10.927 35.902 10.927 35.902-5.004 35.902-10.927-16.441-10.927-35.902-10.927Z"/><path fill="#ef603f" d="M254.276 60.97h-11.138A87.138 87.138 0 0 0 156 148.108c0 16.52 1.256 77.242 84.181 152.423a12.708 12.708 0 0 0 17.052 0c82.925-75.181 84.181-135.902 84.181-152.423a87.138 87.138 0 0 0-87.138-87.138Zm-5.569 150.238a60.286 60.286 0 1 1 60.286-60.286 60.286 60.286 0 0 1-60.286 60.286Z"/><circle cx="241.867" cy="139.565" r="26.196" fill="#eda5a5"/><path fill="#252525" d="M265.69 138.909a31.87 31.87 0 0 1-5.207-8.995s-23.492-.453-38.314-8.938-15.467-13.726-14.01-16.149 6.353-4.232 15.23 1.29c0 0 7.082-7.888 14.174 3.233 0 0 18.748-4.021 29.22 13.087 3.204 5.236 3.197 11.383 2.702 15.383a2.15 2.15 0 0 1-3.795 1.089ZM242.214 135.914a.5.5 0 0 1-.498-.455c-.012-.134-.344-3.08-4.21-3.368a.5.5 0 0 1-.462-.536.495.495 0 0 1 .536-.462c4.74.355 5.129 4.239 5.132 4.278a.5.5 0 0 1-.455.541.62.62 0 0 1-.043.002Z"/><circle cx="237.647" cy="136.79" r="1.848" fill="#252525"/><circle cx="224.34" cy="134.23" r="1.848" fill="#252525"/><path fill="#252525" d="M239.878 149.37a.499.499 0 0 1-.357-.151c-6.249-6.407-16.945-6.955-17.052-6.96a.5.5 0 0 1-.477-.522.514.514 0 0 1 .521-.477c.454.02 11.194.566 17.723 7.261a.5.5 0 0 1-.358.85ZM223.932 131.137a4.439 4.439 0 0 1-1.636-.256.5.5 0 0 1 .387-.922c.038.015 1.92.727 4.984-.848a.5.5 0 1 1 .457.889 9.186 9.186 0 0 1-4.192 1.137Z"/><path fill="#eda5a5" d="M282.19 88.759a4.988 4.988 0 0 1 5.691.538c2.698 2.305.888 5.734.888 5.734s3.59-2.742 6.629.198c3.176 3.073-.167 6.948-.167 6.948s3.34-1.963 5.793.917-.32 5.792-.32 5.792a3.464 3.464 0 0 1 3.863 1.309c1.46 1.964.386 4.57-1.259 6.686s-7.339 7.661-12.427 6.698c-3.896-.738-3.044-4.113-3.044-4.113a5.086 5.086 0 0 1-5.492-1.036c-2.305-2.114-.602-5.26-.602-5.26a4.51 4.51 0 0 1-5.356-1.307c-2.254-2.78-.072-6.23-.072-6.23a4.715 4.715 0 0 1-3.85-1.067c-1.982-1.866-1.097-5.417 1.233-8.199a36.206 36.206 0 0 1 8.491-7.608Z"/><path fill="#252525" d="M281.451 102.357a.5.5 0 0 1-.34-.865l7.317-6.826a.5.5 0 0 1 .681.73l-7.317 6.827a.498.498 0 0 1-.34.134ZM288.06 108.775a.5.5 0 0 1-.324-.88l7.171-6.1a.5.5 0 0 1 .649.763l-7.171 6.098a.499.499 0 0 1-.324.12ZM294.172 114.775a.5.5 0 0 1-.318-.885l6.533-5.389a.5.5 0 1 1 .636.771l-6.533 5.39a.498.498 0 0 1-.318.113Z"/><path fill="#eda5a5" d="M238.509 201.309a4.891 4.891 0 0 1-4.388-7.043l6.956-14.192a4.889 4.889 0 0 1 6.542-2.239c2.425 1.189 2.88 5.237 1.691 7.662l-6.407 13.073a4.89 4.89 0 0 1-4.394 2.739Z"/><path fill="#6ca8f5" d="M221.764 173.71a34.255 34.255 0 1 1 5.37-.421 34.67 34.67 0 0 1-5.37.42Zm.132-61.325a27.437 27.437 0 0 0-4.27.335 27.155 27.155 0 1 0 31.039 22.615 27.17 27.17 0 0 0-26.77-22.95Z"/><path fill="#6ca8f5" d="M234.603 224.389a3.501 3.501 0 0 1-3.453-2.958l-8.016-51.057a3.5 3.5 0 1 1 6.915-1.086l8.016 51.057a3.5 3.5 0 0 1-2.915 4 3.598 3.598 0 0 1-.547.044Z"/><path fill="#eda5a5" d="M235.626 174.34s5.006-.36 5.894 3.815a5.148 5.148 0 0 1-2.841 5.808s5.332-.505 6.543 4.359c1.266 5.083-4.528 6.883-4.528 6.883s4.591.121 5.251 4.557-3.955 5.626-3.955 5.626a4.107 4.107 0 0 1 3.063 3.739c.236 2.892-2.479 4.84-5.46 5.935s-15.415 3.893-19.928-.268c-3.456-3.187-.48-6.047-.48-6.047a6.029 6.029 0 0 1-4.875-4.489c-.992-3.571 2.695-5.666 2.695-5.666a5.346 5.346 0 0 1-4.566-4.677c-.522-4.21 3.836-6.31 3.836-6.31a5.59 5.59 0 0 1-3.203-3.49c-.822-3.12 2.296-6.137 6.386-7.472a65.833 65.833 0 0 1 16.168-2.302Z"/><path fill="#252525" d="M243.984 196.863a.501.501 0 0 1-.297-.097 5.977 5.977 0 0 0-3.007-1.06.5.5 0 0 1-.135-.978c.218-.069 5.327-1.727 4.191-6.286-1.09-4.38-5.81-4.002-6.01-3.981a.508.508 0 0 1-.53-.372.5.5 0 0 1 .28-.583 4.642 4.642 0 0 0 2.669-4.443.5.5 0 0 1 .465-.532.488.488 0 0 1 .533.466 5.37 5.37 0 0 1-1.935 4.534 6.126 6.126 0 0 1 5.499 4.67c.925 3.716-1.614 5.824-3.363 6.802a6.439 6.439 0 0 1 1.937.958.5.5 0 0 1-.297.902Z"/><path fill="#252525" d="M223.81 187.53a.5.5 0 0 1-.102-.989l14.87-3.067a.5.5 0 1 1 .202.978l-14.87 3.068a.452.452 0 0 1-.1.01ZM226.43 198.133a.5.5 0 0 1-.083-.993l14.263-2.428a.5.5 0 0 1 .168.986l-14.263 2.428a.497.497 0 0 1-.085.007ZM228.811 208.002a.5.5 0 0 1-.079-.994l13.179-2.114a.5.5 0 0 1 .158.988l-13.178 2.114a.55.55 0 0 1-.08.006Z"/><path fill="#6ca8f5" d="M112.863 119.738c-4.457 1.082-9.383 2.573-12.538 6.116-3.52 3.954-3.48 9.463-1.138 14.012a18.367 18.367 0 0 0 11.137 8.879c4.048 1.197 10.188 1.475 13.488-1.687a4.541 4.541 0 0 0 .57-5.911c-1.489-2.227-4.089-2.964-6.652-2.917-4.862.09-11.138 1.204-13.663 5.891-2.502 4.645-1.05 10.159 1.881 14.222a47.505 47.505 0 0 0 12.216 11.133 61.99 61.99 0 0 0 35.332 10.45 1 1 0 0 0 0-2 59.756 59.756 0 0 1-27.412-6.176 59.068 59.068 0 0 1-11.784-7.657c-3.568-2.994-7.411-6.54-8.925-11.077-1.432-4.292-.254-9.227 4.11-11.195a21.965 21.965 0 0 1 6.892-1.507c2.35-.222 5.324-.115 6.55 2.286 1.169 2.288-1.149 3.79-3.057 4.352a15.598 15.598 0 0 1-6.113.465 17.15 17.15 0 0 1-10.858-5.637c-3.283-3.747-4.85-9.66-1.634-13.936 2.8-3.723 7.819-5.13 12.13-6.177 1.25-.304.72-2.233-.532-1.929ZM361.003 282.631a59.067 59.067 0 0 1-32.942 3.606 55.051 55.051 0 0 1-22.491-9.614c-2.114-1.533-4.783-3.306-6.09-5.63-.726-1.293-.973-2.958.334-3.995 1.089-.864 2.66-.862 3.979-.932 2.866-.153 6.228-.29 8.663 1.51a6.91 6.91 0 0 1 2.552 6.738c-.597 2.778-3.118 4.27-5.644 5.05-11.852 3.664-24.586-1.105-34.253-8.047-9.746-6.999-17.014-17.476-17.832-29.677-.086-1.277-2.086-1.287-2 0 .82 12.236 7.643 22.807 17.2 30.192 10.308 7.966 24.425 13.477 37.416 9.46 2.644-.817 5.235-2.264 6.48-4.854a8.557 8.557 0 0 0-.396-7.758 9.144 9.144 0 0 0-6.863-4.466 24.112 24.112 0 0 0-4.899-.17 13.059 13.059 0 0 0-4.436.689 4.773 4.773 0 0 0-2.368 6.592c1.212 2.7 3.92 4.594 6.212 6.331a56.601 56.601 0 0 0 16.5 8.619 60.37 60.37 0 0 0 41.41-1.715c1.176-.48.661-2.415-.532-1.929Z"/><circle cx="156" cy="86.474" r="3.128" fill="#6ca8f5"/><circle cx="333.086" cy="236.973" r="5.035" fill="#6ca8f5"/><circle cx="144.896" cy="229.58" r="5.035" fill="#6ca8f5"/><path fill="#252525" d="M268.07 180.637a.5.5 0 0 1-.395-.807c10.317-13.269 7.228-23.21 7.196-23.31a.5.5 0 0 1 .95-.313c.14.423 3.313 10.516-7.357 24.236a.499.499 0 0 1-.395.194Z"/></g></svg>