<svg xmlns="http://www.w3.org/2000/svg" viewBox="0 0 24 24"><path fill="black" d="M17.76 5h-.7l.94-.49a.5.5 0 0 0 .26-.44v-.39l.58.19a.51.51 0 0 0 .39 0l3.5-1.89a.5.5 0 0 0 .23-.6C22.89 1.11 22.34 0 19 0c-2.22 0-5.39 2.16-7 4.65C10.39 2.16 7.22 0 5 0 1.66 0 1.11 1.11 1 1.34a.5.5 0 0 0 .23.6l3.5 1.89a.51.51 0 0 0 .39 0l.58-.19v.39a.5.5 0 0 0 .3.48l.94.49h-.7C2.62 5 0 6.89 0 9.5a.5.5 0 0 0 .58.5L4 9.42a.5.5 0 0 0 .36-.26l.3-.58.18.35a.5.5 0 0 0 .53.26l3.88-.65c-1 3-.87 7.36-.61 10.19C4.06 19.38 1 21.27 1 23.5a.5.5 0 0 0 .5.5h21a.5.5 0 0 0 .5-.5c0-2.52-3.9-4.56-9.3-4.93-1-2.64-2.13-6.76-.9-10.34l5.82 1a.51.51 0 0 0 .53-.26l.18-.35.3.58a.5.5 0 0 0 .36.26l3.43.57h.08a.5.5 0 0 0 .5-.5C24 6.89 21.38 5 17.76 5Z" class="color303c42 svgShape" data-name="Palm tree"/></svg>